<svg width="352" height="944" viewBox="0 0 352 944" fill="none" xmlns="http://www.w3.org/2000/svg">
<path d="M68.552 51.264H74.96V51.72H73.64V67.608H74.96V68.064H67.64V67.608H68.96V52.608H68.864L65.264 68.064H62.264L58.04 52.536H57.944V67.608H59.264V68.064H56V67.608H57.32V51.72H56V51.264H62.48L65.672 63.624L68.552 51.264Z" fill="#5ABC61"/>
<path d="M82.0603 62.952C82.0603 64.424 82.3083 65.552 82.8043 66.336C83.3162 67.12 84.2283 67.512 85.5403 67.512C86.8523 67.512 87.8603 67.104 88.5643 66.288C89.2683 65.472 89.6203 64.232 89.6203 62.568V51.72H88.0603V51.264H91.5643V51.72H90.2443V62.4C90.2443 64.384 89.8043 65.864 88.9243 66.84C88.0443 67.816 86.4842 68.304 84.2442 68.304C82.0202 68.304 80.3162 67.84 79.1322 66.912C77.9643 65.984 77.3802 64.392 77.3802 62.136V51.72H76.0602V51.264H83.6203V51.72H82.0603V62.952Z" fill="#5ABC61"/>
<path d="M99.5047 67.8C100.305 67.8 101.009 67.584 101.617 67.152C102.241 66.72 102.553 66.072 102.553 65.208C102.553 64.328 102.217 63.656 101.545 63.192C100.889 62.728 99.9447 62.328 98.7127 61.992C97.4967 61.64 96.6087 61.336 96.0487 61.08C95.5047 60.824 94.9847 60.488 94.4887 60.072C93.4967 59.24 93.0007 57.952 93.0007 56.208C93.0007 54.784 93.5047 53.56 94.5127 52.536C95.5367 51.512 96.9287 51 98.6887 51C99.5367 51 100.417 51.128 101.329 51.384C102.257 51.624 102.833 51.744 103.057 51.744C103.281 51.744 103.481 51.584 103.657 51.264H103.921L104.089 56.112H103.705C102.937 54.72 102.129 53.608 101.281 52.776C100.449 51.928 99.5367 51.504 98.5447 51.504C97.5687 51.504 96.8087 51.736 96.2647 52.2C95.7207 52.648 95.4487 53.256 95.4487 54.024C95.4487 54.776 95.7687 55.36 96.4087 55.776C97.0647 56.176 97.8647 56.504 98.8087 56.76C99.7527 57.016 100.369 57.192 100.657 57.288C100.961 57.384 101.329 57.52 101.761 57.696C102.209 57.856 102.569 58.032 102.841 58.224C103.129 58.4 103.425 58.632 103.729 58.92C104.049 59.192 104.297 59.496 104.473 59.832C104.905 60.6 105.121 61.512 105.121 62.568C105.121 64.296 104.577 65.688 103.489 66.744C102.417 67.784 101.001 68.304 99.2407 68.304C98.3287 68.304 97.2807 68.184 96.0967 67.944C94.9287 67.704 94.2807 67.584 94.1527 67.584C93.9287 67.584 93.7127 67.824 93.5047 68.304H93.1687L92.9287 62.592H93.3367C94.0407 63.984 94.9367 65.2 96.0247 66.24C97.1287 67.28 98.2887 67.8 99.5047 67.8Z" fill="#5ABC61"/>
<path d="M106.695 51.264H114.015V51.72H112.695V67.608H114.015V68.064H106.695V67.608H108.015V51.72H106.695V51.264Z" fill="#5ABC61"/>
<path d="M124.227 51.48C121.747 51.48 120.507 53.872 120.507 58.656V60.552C120.507 62.824 120.835 64.608 121.491 65.904C122.147 67.184 123.115 67.824 124.395 67.824C126.155 67.824 127.771 66.112 129.243 62.688H129.675L129.507 68.04H129.243C129.147 67.864 129.059 67.744 128.979 67.68C128.899 67.6 128.779 67.56 128.619 67.56C128.475 67.56 127.899 67.688 126.891 67.944C125.883 68.184 124.859 68.304 123.819 68.304C121.211 68.304 119.187 67.6 117.747 66.192C116.323 64.784 115.611 62.672 115.611 59.856C115.611 57.024 116.355 54.84 117.843 53.304C119.347 51.768 121.363 51 123.891 51C124.867 51 125.819 51.128 126.747 51.384C127.691 51.624 128.243 51.744 128.403 51.744C128.563 51.744 128.683 51.712 128.763 51.648C128.843 51.568 128.931 51.44 129.027 51.264H129.291L129.483 56.472H129.051C128.331 54.856 127.587 53.624 126.819 52.776C126.067 51.912 125.203 51.48 124.227 51.48Z" fill="#5ABC61"/>
<path d="M51.1289 380V376.385L47.9824 371.41H50.0156L52.0371 374.809L54.0176 371.41H56.0156L52.8574 376.396V380H51.1289ZM56.5254 375.758C56.5254 374.883 56.6562 374.148 56.918 373.555C57.1133 373.117 57.3789 372.725 57.7148 372.377C58.0547 372.029 58.4258 371.771 58.8281 371.604C59.3633 371.377 59.9805 371.264 60.6797 371.264C61.9453 371.264 62.957 371.656 63.7148 372.441C64.4766 373.227 64.8574 374.318 64.8574 375.717C64.8574 377.104 64.4805 378.189 63.7266 378.975C62.9727 379.756 61.9648 380.146 60.7031 380.146C59.4258 380.146 58.4102 379.758 57.6562 378.98C56.9023 378.199 56.5254 377.125 56.5254 375.758ZM58.3125 375.699C58.3125 376.672 58.5371 377.41 58.9863 377.914C59.4355 378.414 60.0059 378.664 60.6973 378.664C61.3887 378.664 61.9551 378.416 62.3965 377.92C62.8418 377.42 63.0645 376.672 63.0645 375.676C63.0645 374.691 62.8477 373.957 62.4141 373.473C61.9844 372.988 61.4121 372.746 60.6973 372.746C59.9824 372.746 59.4062 372.992 58.9688 373.484C58.5312 373.973 58.3125 374.711 58.3125 375.699ZM66.2051 371.41H67.9395V376.062C67.9395 376.801 67.9609 377.279 68.0039 377.498C68.0781 377.85 68.2539 378.133 68.5312 378.348C68.8125 378.559 69.1953 378.664 69.6797 378.664C70.1719 378.664 70.543 378.564 70.793 378.365C71.043 378.162 71.1934 377.914 71.2441 377.621C71.2949 377.328 71.3203 376.842 71.3203 376.162V371.41H73.0547V375.922C73.0547 376.953 73.0078 377.682 72.9141 378.107C72.8203 378.533 72.6465 378.893 72.3926 379.186C72.1426 379.479 71.8066 379.713 71.3848 379.889C70.9629 380.061 70.4121 380.146 69.7324 380.146C68.9121 380.146 68.2891 380.053 67.8633 379.865C67.4414 379.674 67.1074 379.428 66.8613 379.127C66.6152 378.822 66.4531 378.504 66.375 378.172C66.2617 377.68 66.2051 376.953 66.2051 375.992V371.41ZM74.8945 380V371.41H78.5449C79.4629 371.41 80.1289 371.488 80.543 371.645C80.9609 371.797 81.2949 372.07 81.5449 372.465C81.7949 372.859 81.9199 373.311 81.9199 373.818C81.9199 374.463 81.7305 374.996 81.3516 375.418C80.9727 375.836 80.4062 376.1 79.6523 376.209C80.0273 376.428 80.3359 376.668 80.5781 376.93C80.8242 377.191 81.1543 377.656 81.5684 378.324L82.6172 380H80.543L79.2891 378.131C78.8438 377.463 78.5391 377.043 78.375 376.871C78.2109 376.695 78.0371 376.576 77.8535 376.514C77.6699 376.447 77.3789 376.414 76.9805 376.414H76.6289V380H74.8945ZM76.6289 375.043H77.9121C78.7441 375.043 79.2637 375.008 79.4707 374.938C79.6777 374.867 79.8398 374.746 79.957 374.574C80.0742 374.402 80.1328 374.188 80.1328 373.93C80.1328 373.641 80.0547 373.408 79.8984 373.232C79.7461 373.053 79.5293 372.939 79.248 372.893C79.1074 372.873 78.6855 372.863 77.9824 372.863H76.6289V375.043ZM86.9473 380V371.48H88.6816V378.553H92.9941V380H86.9473ZM94.1836 380V371.41H95.918V380H94.1836ZM97.582 371.41H101.016C101.695 371.41 102.201 371.439 102.533 371.498C102.869 371.553 103.168 371.67 103.43 371.85C103.695 372.029 103.916 372.27 104.092 372.57C104.268 372.867 104.355 373.201 104.355 373.572C104.355 373.975 104.246 374.344 104.027 374.68C103.812 375.016 103.52 375.268 103.148 375.436C103.672 375.588 104.074 375.848 104.355 376.215C104.637 376.582 104.777 377.014 104.777 377.51C104.777 377.9 104.686 378.281 104.502 378.652C104.322 379.02 104.074 379.314 103.758 379.537C103.445 379.756 103.059 379.891 102.598 379.941C102.309 379.973 101.611 379.992 100.506 380H97.582V371.41ZM99.3164 372.84V374.826H100.453C101.129 374.826 101.549 374.816 101.713 374.797C102.01 374.762 102.242 374.66 102.41 374.492C102.582 374.32 102.668 374.096 102.668 373.818C102.668 373.553 102.594 373.338 102.445 373.174C102.301 373.006 102.084 372.904 101.795 372.869C101.623 372.85 101.129 372.84 100.312 372.84H99.3164ZM99.3164 376.256V378.553H100.922C101.547 378.553 101.943 378.535 102.111 378.5C102.369 378.453 102.578 378.34 102.738 378.16C102.902 377.977 102.984 377.732 102.984 377.428C102.984 377.17 102.922 376.951 102.797 376.771C102.672 376.592 102.49 376.461 102.252 376.379C102.018 376.297 101.506 376.256 100.717 376.256H99.3164ZM106.254 380V371.41H109.904C110.822 371.41 111.488 371.488 111.902 371.645C112.32 371.797 112.654 372.07 112.904 372.465C113.154 372.859 113.279 373.311 113.279 373.818C113.279 374.463 113.09 374.996 112.711 375.418C112.332 375.836 111.766 376.1 111.012 376.209C111.387 376.428 111.695 376.668 111.938 376.93C112.184 377.191 112.514 377.656 112.928 378.324L113.977 380H111.902L110.648 378.131C110.203 377.463 109.898 377.043 109.734 376.871C109.57 376.695 109.396 376.576 109.213 376.514C109.029 376.447 108.738 376.414 108.34 376.414H107.988V380H106.254ZM107.988 375.043H109.271C110.104 375.043 110.623 375.008 110.83 374.938C111.037 374.867 111.199 374.746 111.316 374.574C111.434 374.402 111.492 374.188 111.492 373.93C111.492 373.641 111.414 373.408 111.258 373.232C111.105 373.053 110.889 372.939 110.607 372.893C110.467 372.873 110.045 372.863 109.342 372.863H107.988V375.043ZM122.666 380H120.779L120.029 378.049H116.596L115.887 380H114.047L117.393 371.41H119.227L122.666 380ZM119.473 376.602L118.289 373.414L117.129 376.602H119.473ZM123.598 380V371.41H127.248C128.166 371.41 128.832 371.488 129.246 371.645C129.664 371.797 129.998 372.07 130.248 372.465C130.498 372.859 130.623 373.311 130.623 373.818C130.623 374.463 130.434 374.996 130.055 375.418C129.676 375.836 129.109 376.1 128.355 376.209C128.73 376.428 129.039 376.668 129.281 376.93C129.527 377.191 129.857 377.656 130.271 378.324L131.32 380H129.246L127.992 378.131C127.547 377.463 127.242 377.043 127.078 376.871C126.914 376.695 126.74 376.576 126.557 376.514C126.373 376.447 126.082 376.414 125.684 376.414H125.332V380H123.598ZM125.332 375.043H126.615C127.447 375.043 127.967 375.008 128.174 374.938C128.381 374.867 128.543 374.746 128.66 374.574C128.777 374.402 128.836 374.188 128.836 373.93C128.836 373.641 128.758 373.408 128.602 373.232C128.449 373.053 128.232 372.939 127.951 372.893C127.811 372.873 127.389 372.863 126.686 372.863H125.332V375.043ZM134.074 380V376.385L130.928 371.41H132.961L134.982 374.809L136.963 371.41H138.961L135.803 376.396V380H134.074Z" fill="#E3556D"/>
<path d="M48.873 636V627.41H51.6562C52.7109 627.41 53.3984 627.453 53.7188 627.539C54.2109 627.668 54.623 627.949 54.9551 628.383C55.2871 628.812 55.4531 629.369 55.4531 630.053C55.4531 630.58 55.3574 631.023 55.166 631.383C54.9746 631.742 54.7305 632.025 54.4336 632.232C54.1406 632.436 53.8418 632.57 53.5371 632.637C53.123 632.719 52.5234 632.76 51.7383 632.76H50.6074V636H48.873ZM50.6074 628.863V631.301H51.5566C52.2402 631.301 52.6973 631.256 52.9277 631.166C53.1582 631.076 53.3379 630.936 53.4668 630.744C53.5996 630.553 53.666 630.33 53.666 630.076C53.666 629.764 53.5742 629.506 53.3906 629.303C53.207 629.1 52.9746 628.973 52.6934 628.922C52.4863 628.883 52.0703 628.863 51.4453 628.863H50.6074ZM56.9238 636V627.48H58.6582V634.553H62.9707V636H56.9238ZM71.959 636H70.0723L69.3223 634.049H65.8887L65.1797 636H63.3398L66.6855 627.41H68.5195L71.959 636ZM68.7656 632.602L67.582 629.414L66.4219 632.602H68.7656ZM74.0391 636V632.385L70.8926 627.41H72.9258L74.9473 630.809L76.9277 627.41H78.9258L75.7676 632.396V636H74.0391ZM79.834 636V627.48H81.5684V634.553H85.8809V636H79.834ZM87.0703 636V627.41H88.8047V636H87.0703ZM90.0234 633.205L91.7109 633.041C91.8125 633.607 92.0176 634.023 92.3262 634.289C92.6387 634.555 93.0586 634.688 93.5859 634.688C94.1445 634.688 94.5645 634.57 94.8457 634.336C95.1309 634.098 95.2734 633.82 95.2734 633.504C95.2734 633.301 95.2129 633.129 95.0918 632.988C94.9746 632.844 94.7676 632.719 94.4707 632.613C94.2676 632.543 93.8047 632.418 93.082 632.238C92.1523 632.008 91.5 631.725 91.125 631.389C90.5977 630.916 90.334 630.34 90.334 629.66C90.334 629.223 90.457 628.814 90.7031 628.436C90.9531 628.053 91.3105 627.762 91.7754 627.562C92.2441 627.363 92.8086 627.264 93.4688 627.264C94.5469 627.264 95.3574 627.5 95.9004 627.973C96.4473 628.445 96.7344 629.076 96.7617 629.865L95.0273 629.941C94.9531 629.5 94.793 629.184 94.5469 628.992C94.3047 628.797 93.9395 628.699 93.4512 628.699C92.9473 628.699 92.5527 628.803 92.2676 629.01C92.084 629.143 91.9922 629.32 91.9922 629.543C91.9922 629.746 92.0781 629.92 92.25 630.064C92.4688 630.248 93 630.439 93.8438 630.639C94.6875 630.838 95.3105 631.045 95.7129 631.26C96.1191 631.471 96.4355 631.762 96.6621 632.133C96.8926 632.5 97.0078 632.955 97.0078 633.498C97.0078 633.99 96.8711 634.451 96.5977 634.881C96.3242 635.311 95.9375 635.631 95.4375 635.842C94.9375 636.049 94.3145 636.152 93.5684 636.152C92.4824 636.152 91.6484 635.902 91.0664 635.402C90.4844 634.898 90.1367 634.166 90.0234 633.205ZM100.4 636V628.863H97.8516V627.41H104.678V628.863H102.135V636H100.4ZM105.363 633.205L107.051 633.041C107.152 633.607 107.357 634.023 107.666 634.289C107.979 634.555 108.398 634.688 108.926 634.688C109.484 634.688 109.904 634.57 110.186 634.336C110.471 634.098 110.613 633.82 110.613 633.504C110.613 633.301 110.553 633.129 110.432 632.988C110.314 632.844 110.107 632.719 109.811 632.613C109.607 632.543 109.145 632.418 108.422 632.238C107.492 632.008 106.84 631.725 106.465 631.389C105.938 630.916 105.674 630.34 105.674 629.66C105.674 629.223 105.797 628.814 106.043 628.436C106.293 628.053 106.65 627.762 107.115 627.562C107.584 627.363 108.148 627.264 108.809 627.264C109.887 627.264 110.697 627.5 111.24 627.973C111.787 628.445 112.074 629.076 112.102 629.865L110.367 629.941C110.293 629.5 110.133 629.184 109.887 628.992C109.645 628.797 109.279 628.699 108.791 628.699C108.287 628.699 107.893 628.803 107.607 629.01C107.424 629.143 107.332 629.32 107.332 629.543C107.332 629.746 107.418 629.92 107.59 630.064C107.809 630.248 108.34 630.439 109.184 630.639C110.027 630.838 110.65 631.045 111.053 631.26C111.459 631.471 111.775 631.762 112.002 632.133C112.232 632.5 112.348 632.955 112.348 633.498C112.348 633.99 112.211 634.451 111.938 634.881C111.664 635.311 111.277 635.631 110.777 635.842C110.277 636.049 109.654 636.152 108.908 636.152C107.822 636.152 106.988 635.902 106.406 635.402C105.824 634.898 105.477 634.166 105.363 633.205Z" fill="#E3556D"/>
<path d="M50.8066 672V664.863H48.2578V663.41H55.084V664.863H52.541V672H50.8066ZM55.6348 667.758C55.6348 666.883 55.7656 666.148 56.0273 665.555C56.2227 665.117 56.4883 664.725 56.8242 664.377C57.1641 664.029 57.5352 663.771 57.9375 663.604C58.4727 663.377 59.0898 663.264 59.7891 663.264C61.0547 663.264 62.0664 663.656 62.8242 664.441C63.5859 665.227 63.9668 666.318 63.9668 667.717C63.9668 669.104 63.5898 670.189 62.8359 670.975C62.082 671.756 61.0742 672.146 59.8125 672.146C58.5352 672.146 57.5195 671.758 56.7656 670.98C56.0117 670.199 55.6348 669.125 55.6348 667.758ZM57.4219 667.699C57.4219 668.672 57.6465 669.41 58.0957 669.914C58.5449 670.414 59.1152 670.664 59.8066 670.664C60.498 670.664 61.0645 670.416 61.5059 669.92C61.9512 669.42 62.1738 668.672 62.1738 667.676C62.1738 666.691 61.957 665.957 61.5234 665.473C61.0938 664.988 60.5215 664.746 59.8066 664.746C59.0918 664.746 58.5156 664.992 58.0781 665.484C57.6406 665.973 57.4219 666.711 57.4219 667.699ZM65.3262 672V663.41H68.1094C69.1641 663.41 69.8516 663.453 70.1719 663.539C70.6641 663.668 71.0762 663.949 71.4082 664.383C71.7402 664.812 71.9062 665.369 71.9062 666.053C71.9062 666.58 71.8105 667.023 71.6191 667.383C71.4277 667.742 71.1836 668.025 70.8867 668.232C70.5938 668.436 70.2949 668.57 69.9902 668.637C69.5762 668.719 68.9766 668.76 68.1914 668.76H67.0605V672H65.3262ZM67.0605 664.863V667.301H68.0098C68.6934 667.301 69.1504 667.256 69.3809 667.166C69.6113 667.076 69.791 666.936 69.9199 666.744C70.0527 666.553 70.1191 666.33 70.1191 666.076C70.1191 665.764 70.0273 665.506 69.8438 665.303C69.6602 665.1 69.4277 664.973 69.1465 664.922C68.9395 664.883 68.5234 664.863 67.8984 664.863H67.0605ZM76.4473 672V663.41H79.2305C80.2852 663.41 80.9727 663.453 81.293 663.539C81.7852 663.668 82.1973 663.949 82.5293 664.383C82.8613 664.812 83.0273 665.369 83.0273 666.053C83.0273 666.58 82.9316 667.023 82.7402 667.383C82.5488 667.742 82.3047 668.025 82.0078 668.232C81.7148 668.436 81.416 668.57 81.1113 668.637C80.6973 668.719 80.0977 668.76 79.3125 668.76H78.1816V672H76.4473ZM78.1816 664.863V667.301H79.1309C79.8145 667.301 80.2715 667.256 80.502 667.166C80.7324 667.076 80.9121 666.936 81.041 666.744C81.1738 666.553 81.2402 666.33 81.2402 666.076C81.2402 665.764 81.1484 665.506 80.9648 665.303C80.7812 665.1 80.5488 664.973 80.2676 664.922C80.0605 664.883 79.6445 664.863 79.0195 664.863H78.1816ZM84.0996 667.758C84.0996 666.883 84.2305 666.148 84.4922 665.555C84.6875 665.117 84.9531 664.725 85.2891 664.377C85.6289 664.029 86 663.771 86.4023 663.604C86.9375 663.377 87.5547 663.264 88.2539 663.264C89.5195 663.264 90.5312 663.656 91.2891 664.441C92.0508 665.227 92.4316 666.318 92.4316 667.717C92.4316 669.104 92.0547 670.189 91.3008 670.975C90.5469 671.756 89.5391 672.146 88.2773 672.146C87 672.146 85.9844 671.758 85.2305 670.98C84.4766 670.199 84.0996 669.125 84.0996 667.758ZM85.8867 667.699C85.8867 668.672 86.1113 669.41 86.5605 669.914C87.0098 670.414 87.5801 670.664 88.2715 670.664C88.9629 670.664 89.5293 670.416 89.9707 669.92C90.416 669.42 90.6387 668.672 90.6387 667.676C90.6387 666.691 90.4219 665.957 89.9883 665.473C89.5586 664.988 88.9863 664.746 88.2715 664.746C87.5566 664.746 86.9805 664.992 86.543 665.484C86.1055 665.973 85.8867 666.711 85.8867 667.699ZM93.791 672V663.41H96.5742C97.6289 663.41 98.3164 663.453 98.6367 663.539C99.1289 663.668 99.541 663.949 99.873 664.383C100.205 664.812 100.371 665.369 100.371 666.053C100.371 666.58 100.275 667.023 100.084 667.383C99.8926 667.742 99.6484 668.025 99.3516 668.232C99.0586 668.436 98.7598 668.57 98.4551 668.637C98.041 668.719 97.4414 668.76 96.6562 668.76H95.5254V672H93.791ZM95.5254 664.863V667.301H96.4746C97.1582 667.301 97.6152 667.256 97.8457 667.166C98.0762 667.076 98.2559 666.936 98.3848 666.744C98.5176 666.553 98.584 666.33 98.584 666.076C98.584 665.764 98.4922 665.506 98.3086 665.303C98.125 665.1 97.8926 664.973 97.6113 664.922C97.4043 664.883 96.9883 664.863 96.3633 664.863H95.5254Z" fill="white"/>
<path d="M54.3691 716.842L56.0508 717.375C55.793 718.312 55.3633 719.01 54.7617 719.467C54.1641 719.92 53.4043 720.146 52.4824 720.146C51.3418 720.146 50.4043 719.758 49.6699 718.98C48.9355 718.199 48.5684 717.133 48.5684 715.781C48.5684 714.352 48.9375 713.242 49.6758 712.453C50.4141 711.66 51.3848 711.264 52.5879 711.264C53.6387 711.264 54.4922 711.574 55.1484 712.195C55.5391 712.562 55.832 713.09 56.0273 713.777L54.3105 714.188C54.209 713.742 53.9961 713.391 53.6719 713.133C53.3516 712.875 52.9609 712.746 52.5 712.746C51.8633 712.746 51.3457 712.975 50.9473 713.432C50.5527 713.889 50.3555 714.629 50.3555 715.652C50.3555 716.738 50.5508 717.512 50.9414 717.973C51.332 718.434 51.8398 718.664 52.4648 718.664C52.9258 718.664 53.3223 718.518 53.6543 718.225C53.9863 717.932 54.2246 717.471 54.3691 716.842ZM57.5508 720V711.41H59.2852V714.791H62.6836V711.41H64.418V720H62.6836V716.244H59.2852V720H57.5508ZM73.9629 720H72.0762L71.3262 718.049H67.8926L67.1836 720H65.3438L68.6895 711.41H70.5234L73.9629 720ZM70.7695 716.602L69.5859 713.414L68.4258 716.602H70.7695ZM74.8945 720V711.41H78.5449C79.4629 711.41 80.1289 711.488 80.543 711.645C80.9609 711.797 81.2949 712.07 81.5449 712.465C81.7949 712.859 81.9199 713.311 81.9199 713.818C81.9199 714.463 81.7305 714.996 81.3516 715.418C80.9727 715.836 80.4062 716.1 79.6523 716.209C80.0273 716.428 80.3359 716.668 80.5781 716.93C80.8242 717.191 81.1543 717.656 81.5684 718.324L82.6172 720H80.543L79.2891 718.131C78.8438 717.463 78.5391 717.043 78.375 716.871C78.2109 716.695 78.0371 716.576 77.8535 716.514C77.6699 716.447 77.3789 716.414 76.9805 716.414H76.6289V720H74.8945ZM76.6289 715.043H77.9121C78.7441 715.043 79.2637 715.008 79.4707 714.938C79.6777 714.867 79.8398 714.746 79.957 714.574C80.0742 714.402 80.1328 714.188 80.1328 713.93C80.1328 713.641 80.0547 713.408 79.8984 713.232C79.7461 713.053 79.5293 712.939 79.248 712.893C79.1074 712.873 78.6855 712.863 77.9824 712.863H76.6289V715.043ZM85.4941 720V712.863H82.9453V711.41H89.7715V712.863H87.2285V720H85.4941ZM90.8438 720V711.41H92.5781V720H90.8438ZM94.2539 720V711.41H95.9414L99.457 717.146V711.41H101.068V720H99.3281L95.8652 714.398V720H94.2539ZM106.904 716.842V715.395H110.643V718.816C110.279 719.168 109.752 719.479 109.061 719.748C108.373 720.014 107.676 720.146 106.969 720.146C106.07 720.146 105.287 719.959 104.619 719.584C103.951 719.205 103.449 718.666 103.113 717.967C102.777 717.264 102.609 716.5 102.609 715.676C102.609 714.781 102.797 713.986 103.172 713.291C103.547 712.596 104.096 712.062 104.818 711.691C105.369 711.406 106.055 711.264 106.875 711.264C107.941 711.264 108.773 711.488 109.371 711.938C109.973 712.383 110.359 713 110.531 713.789L108.809 714.111C108.688 713.689 108.459 713.357 108.123 713.115C107.791 712.869 107.375 712.746 106.875 712.746C106.117 712.746 105.514 712.986 105.064 713.467C104.619 713.947 104.396 714.66 104.396 715.605C104.396 716.625 104.623 717.391 105.076 717.902C105.529 718.41 106.123 718.664 106.857 718.664C107.221 718.664 107.584 718.594 107.947 718.453C108.314 718.309 108.629 718.135 108.891 717.932V716.842H106.904ZM115.605 720V711.41H117.293L120.809 717.146V711.41H122.42V720H120.68L117.217 714.398V720H115.605ZM123.908 715.758C123.908 714.883 124.039 714.148 124.301 713.555C124.496 713.117 124.762 712.725 125.098 712.377C125.438 712.029 125.809 711.771 126.211 711.604C126.746 711.377 127.363 711.264 128.062 711.264C129.328 711.264 130.34 711.656 131.098 712.441C131.859 713.227 132.24 714.318 132.24 715.717C132.24 717.104 131.863 718.189 131.109 718.975C130.355 719.756 129.348 720.146 128.086 720.146C126.809 720.146 125.793 719.758 125.039 718.98C124.285 718.199 123.908 717.125 123.908 715.758ZM125.695 715.699C125.695 716.672 125.92 717.41 126.369 717.914C126.818 718.414 127.389 718.664 128.08 718.664C128.771 718.664 129.338 718.416 129.779 717.92C130.225 717.42 130.447 716.672 130.447 715.676C130.447 714.691 130.23 713.957 129.797 713.473C129.367 712.988 128.795 712.746 128.08 712.746C127.365 712.746 126.789 712.992 126.352 713.484C125.914 713.973 125.695 714.711 125.695 715.699ZM134.818 720L132.768 711.41H134.543L135.838 717.311L137.408 711.41H139.471L140.977 717.41L142.295 711.41H144.041L141.955 720H140.115L138.404 713.578L136.699 720H134.818Z" fill="white"/>
<path d="M48.8789 768V759.41H52.5293C53.4473 759.41 54.1133 759.488 54.5273 759.645C54.9453 759.797 55.2793 760.07 55.5293 760.465C55.7793 760.859 55.9043 761.311 55.9043 761.818C55.9043 762.463 55.7148 762.996 55.3359 763.418C54.957 763.836 54.3906 764.1 53.6367 764.209C54.0117 764.428 54.3203 764.668 54.5625 764.93C54.8086 765.191 55.1387 765.656 55.5527 766.324L56.6016 768H54.5273L53.2734 766.131C52.8281 765.463 52.5234 765.043 52.3594 764.871C52.1953 764.695 52.0215 764.576 51.8379 764.514C51.6543 764.447 51.3633 764.414 50.9648 764.414H50.6133V768H48.8789ZM50.6133 763.043H51.8965C52.7285 763.043 53.248 763.008 53.4551 762.938C53.6621 762.867 53.8242 762.746 53.9414 762.574C54.0586 762.402 54.1172 762.188 54.1172 761.93C54.1172 761.641 54.0391 761.408 53.8828 761.232C53.7305 761.053 53.5137 760.939 53.2324 760.893C53.0918 760.873 52.6699 760.863 51.9668 760.863H50.6133V763.043ZM57.1934 763.758C57.1934 762.883 57.3242 762.148 57.5859 761.555C57.7812 761.117 58.0469 760.725 58.3828 760.377C58.7227 760.029 59.0938 759.771 59.4961 759.604C60.0312 759.377 60.6484 759.264 61.3477 759.264C62.6133 759.264 63.625 759.656 64.3828 760.441C65.1445 761.227 65.5254 762.318 65.5254 763.717C65.5254 765.104 65.1484 766.189 64.3945 766.975C63.6406 767.756 62.6328 768.146 61.3711 768.146C60.0938 768.146 59.0781 767.758 58.3242 766.98C57.5703 766.199 57.1934 765.125 57.1934 763.758ZM58.9805 763.699C58.9805 764.672 59.2051 765.41 59.6543 765.914C60.1035 766.414 60.6738 766.664 61.3652 766.664C62.0566 766.664 62.623 766.416 63.0645 765.92C63.5098 765.42 63.7324 764.672 63.7324 763.676C63.7324 762.691 63.5156 761.957 63.082 761.473C62.6523 760.988 62.0801 760.746 61.3652 760.746C60.6504 760.746 60.0742 760.992 59.6367 761.484C59.1992 761.973 58.9805 762.711 58.9805 763.699ZM66.8613 768V759.41H69.457L71.0156 765.27L72.5566 759.41H75.1582V768H73.5469V761.238L71.8418 768H70.1719L68.4727 761.238V768H66.8613ZM84.627 768H82.7402L81.9902 766.049H78.5566L77.8477 768H76.0078L79.3535 759.41H81.1875L84.627 768ZM81.4336 764.602L80.25 761.414L79.0898 764.602H81.4336ZM85.5703 768V759.41H87.2578L90.7734 765.146V759.41H92.3848V768H90.6445L87.1816 762.398V768H85.5703ZM99.7207 764.842L101.402 765.375C101.145 766.312 100.715 767.01 100.113 767.467C99.5156 767.92 98.7559 768.146 97.834 768.146C96.6934 768.146 95.7559 767.758 95.0215 766.98C94.2871 766.199 93.9199 765.133 93.9199 763.781C93.9199 762.352 94.2891 761.242 95.0273 760.453C95.7656 759.66 96.7363 759.264 97.9395 759.264C98.9902 759.264 99.8438 759.574 100.5 760.195C100.891 760.562 101.184 761.09 101.379 761.777L99.6621 762.188C99.5605 761.742 99.3477 761.391 99.0234 761.133C98.7031 760.875 98.3125 760.746 97.8516 760.746C97.2148 760.746 96.6973 760.975 96.2988 761.432C95.9043 761.889 95.707 762.629 95.707 763.652C95.707 764.738 95.9023 765.512 96.293 765.973C96.6836 766.434 97.1914 766.664 97.8164 766.664C98.2773 766.664 98.6738 766.518 99.0059 766.225C99.3379 765.932 99.5762 765.471 99.7207 764.842ZM102.896 768V759.41H109.266V760.863H104.631V762.768H108.943V764.215H104.631V766.553H109.43V768H102.896ZM113.801 765.205L115.488 765.041C115.59 765.607 115.795 766.023 116.104 766.289C116.416 766.555 116.836 766.688 117.363 766.688C117.922 766.688 118.342 766.57 118.623 766.336C118.908 766.098 119.051 765.82 119.051 765.504C119.051 765.301 118.99 765.129 118.869 764.988C118.752 764.844 118.545 764.719 118.248 764.613C118.045 764.543 117.582 764.418 116.859 764.238C115.93 764.008 115.277 763.725 114.902 763.389C114.375 762.916 114.111 762.34 114.111 761.66C114.111 761.223 114.234 760.814 114.48 760.436C114.73 760.053 115.088 759.762 115.553 759.562C116.021 759.363 116.586 759.264 117.246 759.264C118.324 759.264 119.135 759.5 119.678 759.973C120.225 760.445 120.512 761.076 120.539 761.865L118.805 761.941C118.73 761.5 118.57 761.184 118.324 760.992C118.082 760.797 117.717 760.699 117.229 760.699C116.725 760.699 116.33 760.803 116.045 761.01C115.861 761.143 115.77 761.32 115.77 761.543C115.77 761.746 115.855 761.92 116.027 762.064C116.246 762.248 116.777 762.439 117.621 762.639C118.465 762.838 119.088 763.045 119.49 763.26C119.896 763.471 120.213 763.762 120.439 764.133C120.67 764.5 120.785 764.955 120.785 765.498C120.785 765.99 120.648 766.451 120.375 766.881C120.102 767.311 119.715 767.631 119.215 767.842C118.715 768.049 118.092 768.152 117.346 768.152C116.26 768.152 115.426 767.902 114.844 767.402C114.262 766.898 113.914 766.166 113.801 765.205ZM122.244 768V759.41H128.613V760.863H123.979V762.768H128.291V764.215H123.979V766.553H128.777V768H122.244ZM137.994 768H136.107L135.357 766.049H131.924L131.215 768H129.375L132.721 759.41H134.555L137.994 768ZM134.801 764.602L133.617 761.414L132.457 764.602H134.801ZM138.48 765.205L140.168 765.041C140.27 765.607 140.475 766.023 140.783 766.289C141.096 766.555 141.516 766.688 142.043 766.688C142.602 766.688 143.021 766.57 143.303 766.336C143.588 766.098 143.73 765.82 143.73 765.504C143.73 765.301 143.67 765.129 143.549 764.988C143.432 764.844 143.225 764.719 142.928 764.613C142.725 764.543 142.262 764.418 141.539 764.238C140.609 764.008 139.957 763.725 139.582 763.389C139.055 762.916 138.791 762.34 138.791 761.66C138.791 761.223 138.914 760.814 139.16 760.436C139.41 760.053 139.768 759.762 140.232 759.562C140.701 759.363 141.266 759.264 141.926 759.264C143.004 759.264 143.814 759.5 144.357 759.973C144.904 760.445 145.191 761.076 145.219 761.865L143.484 761.941C143.41 761.5 143.25 761.184 143.004 760.992C142.762 760.797 142.396 760.699 141.908 760.699C141.404 760.699 141.01 760.803 140.725 761.01C140.541 761.143 140.449 761.32 140.449 761.543C140.449 761.746 140.535 761.92 140.707 762.064C140.926 762.248 141.457 762.439 142.301 762.639C143.145 762.838 143.768 763.045 144.17 763.26C144.576 763.471 144.893 763.762 145.119 764.133C145.35 764.5 145.465 764.955 145.465 765.498C145.465 765.99 145.328 766.451 145.055 766.881C144.781 767.311 144.395 767.631 143.895 767.842C143.395 768.049 142.771 768.152 142.025 768.152C140.939 768.152 140.105 767.902 139.523 767.402C138.941 766.898 138.594 766.166 138.48 765.205ZM146.572 763.758C146.572 762.883 146.703 762.148 146.965 761.555C147.16 761.117 147.426 760.725 147.762 760.377C148.102 760.029 148.473 759.771 148.875 759.604C149.41 759.377 150.027 759.264 150.727 759.264C151.992 759.264 153.004 759.656 153.762 760.441C154.523 761.227 154.904 762.318 154.904 763.717C154.904 765.104 154.527 766.189 153.773 766.975C153.02 767.756 152.012 768.146 150.75 768.146C149.473 768.146 148.457 767.758 147.703 766.98C146.949 766.199 146.572 765.125 146.572 763.758ZM148.359 763.699C148.359 764.672 148.584 765.41 149.033 765.914C149.482 766.414 150.053 766.664 150.744 766.664C151.436 766.664 152.002 766.416 152.443 765.92C152.889 765.42 153.111 764.672 153.111 763.676C153.111 762.691 152.895 761.957 152.461 761.473C152.031 760.988 151.459 760.746 150.744 760.746C150.029 760.746 149.453 760.992 149.016 761.484C148.578 761.973 148.359 762.711 148.359 763.699ZM156.281 768V759.41H157.969L161.484 765.146V759.41H163.096V768H161.355L157.893 762.398V768H156.281Z" fill="white"/>
<path d="M67.9999 862C73.5228 862 77.9999 857.523 77.9999 852C77.9999 846.477 73.5228 842 67.9999 842C62.4771 842 57.9999 846.477 57.9999 852C57.9999 857.523 62.4771 862 67.9999 862Z" stroke="#5ABC61" stroke-width="2" stroke-linecap="round" stroke-linejoin="round"/>
<path d="M68 848V856" stroke="#5ABC61" stroke-width="2" stroke-linecap="round" stroke-linejoin="round"/>
<path d="M63.9999 852H71.9999" stroke="#5ABC61" stroke-width="2" stroke-linecap="round" stroke-linejoin="round"/>
<path d="M96.6191 856H94.7324L93.9824 854.049H90.5488L89.8398 856H88L91.3457 847.41H93.1797L96.6191 856ZM93.4258 852.602L92.2422 849.414L91.082 852.602H93.4258ZM97.5391 847.41H100.709C101.424 847.41 101.969 847.465 102.344 847.574C102.848 847.723 103.279 847.986 103.639 848.365C103.998 848.744 104.271 849.209 104.459 849.76C104.646 850.307 104.74 850.982 104.74 851.787C104.74 852.494 104.652 853.104 104.477 853.615C104.262 854.24 103.955 854.746 103.557 855.133C103.256 855.426 102.85 855.654 102.338 855.818C101.955 855.939 101.443 856 100.803 856H97.5391V847.41ZM99.2734 848.863V854.553H100.568C101.053 854.553 101.402 854.525 101.617 854.471C101.898 854.4 102.131 854.281 102.314 854.113C102.502 853.945 102.654 853.67 102.771 853.287C102.889 852.9 102.947 852.375 102.947 851.711C102.947 851.047 102.889 850.537 102.771 850.182C102.654 849.826 102.49 849.549 102.279 849.35C102.068 849.15 101.801 849.016 101.477 848.945C101.234 848.891 100.76 848.863 100.053 848.863H99.2734ZM106.211 847.41H109.381C110.096 847.41 110.641 847.465 111.016 847.574C111.52 847.723 111.951 847.986 112.311 848.365C112.67 848.744 112.943 849.209 113.131 849.76C113.318 850.307 113.412 850.982 113.412 851.787C113.412 852.494 113.324 853.104 113.148 853.615C112.934 854.24 112.627 854.746 112.229 855.133C111.928 855.426 111.521 855.654 111.01 855.818C110.627 855.939 110.115 856 109.475 856H106.211V847.41ZM107.945 848.863V854.553H109.24C109.725 854.553 110.074 854.525 110.289 854.471C110.57 854.4 110.803 854.281 110.986 854.113C111.174 853.945 111.326 853.67 111.443 853.287C111.561 852.9 111.619 852.375 111.619 851.711C111.619 851.047 111.561 850.537 111.443 850.182C111.326 849.826 111.162 849.549 110.951 849.35C110.74 849.15 110.473 849.016 110.148 848.945C109.906 848.891 109.432 848.863 108.725 848.863H107.945ZM118.246 856V847.41H119.934L123.449 853.146V847.41H125.061V856H123.32L119.857 850.398V856H118.246ZM126.9 856V847.41H133.27V848.863H128.635V850.768H132.947V852.215H128.635V854.553H133.434V856H126.9ZM136.123 856L134.072 847.41H135.848L137.143 853.311L138.713 847.41H140.775L142.281 853.41L143.6 847.41H145.346L143.26 856H141.42L139.709 849.578L138.004 856H136.123ZM149.576 856V847.41H152.359C153.414 847.41 154.102 847.453 154.422 847.539C154.914 847.668 155.326 847.949 155.658 848.383C155.99 848.812 156.156 849.369 156.156 850.053C156.156 850.58 156.061 851.023 155.869 851.383C155.678 851.742 155.434 852.025 155.137 852.232C154.844 852.436 154.545 852.57 154.24 852.637C153.826 852.719 153.227 852.76 152.441 852.76H151.311V856H149.576ZM151.311 848.863V851.301H152.26C152.943 851.301 153.4 851.256 153.631 851.166C153.861 851.076 154.041 850.936 154.17 850.744C154.303 850.553 154.369 850.33 154.369 850.076C154.369 849.764 154.277 849.506 154.094 849.303C153.91 849.1 153.678 848.973 153.396 848.922C153.189 848.883 152.773 848.863 152.148 848.863H151.311ZM157.627 856V847.48H159.361V854.553H163.674V856H157.627ZM172.662 856H170.775L170.025 854.049H166.592L165.883 856H164.043L167.389 847.41H169.223L172.662 856ZM169.469 852.602L168.285 849.414L167.125 852.602H169.469ZM174.742 856V852.385L171.596 847.41H173.629L175.65 850.809L177.631 847.41H179.629L176.471 852.396V856H174.742ZM180.537 856V847.48H182.271V854.553H186.584V856H180.537ZM187.773 856V847.41H189.508V856H187.773ZM190.727 853.205L192.414 853.041C192.516 853.607 192.721 854.023 193.029 854.289C193.342 854.555 193.762 854.688 194.289 854.688C194.848 854.688 195.268 854.57 195.549 854.336C195.834 854.098 195.977 853.82 195.977 853.504C195.977 853.301 195.916 853.129 195.795 852.988C195.678 852.844 195.471 852.719 195.174 852.613C194.971 852.543 194.508 852.418 193.785 852.238C192.855 852.008 192.203 851.725 191.828 851.389C191.301 850.916 191.037 850.34 191.037 849.66C191.037 849.223 191.16 848.814 191.406 848.436C191.656 848.053 192.014 847.762 192.479 847.562C192.947 847.363 193.512 847.264 194.172 847.264C195.25 847.264 196.061 847.5 196.604 847.973C197.15 848.445 197.438 849.076 197.465 849.865L195.73 849.941C195.656 849.5 195.496 849.184 195.25 848.992C195.008 848.797 194.643 848.699 194.154 848.699C193.65 848.699 193.256 848.803 192.971 849.01C192.787 849.143 192.695 849.32 192.695 849.543C192.695 849.746 192.781 849.92 192.953 850.064C193.172 850.248 193.703 850.439 194.547 850.639C195.391 850.838 196.014 851.045 196.416 851.26C196.822 851.471 197.139 851.762 197.365 852.133C197.596 852.5 197.711 852.955 197.711 853.498C197.711 853.99 197.574 854.451 197.301 854.881C197.027 855.311 196.641 855.631 196.141 855.842C195.641 856.049 195.018 856.152 194.271 856.152C193.186 856.152 192.352 855.902 191.77 855.402C191.188 854.898 190.84 854.166 190.727 853.205ZM201.104 856V848.863H198.555V847.41H205.381V848.863H202.838V856H201.104Z" fill="#5ABC61"/>
<path d="M54 834H210V830H54V834ZM214 838V866H218V838H214ZM210 870H54V874H210V870ZM50 866V838H46V866H50ZM54 870C51.7909 870 50 868.209 50 866H46C46 870.418 49.5817 874 54 874V870ZM214 866C214 868.209 212.209 870 210 870V874C214.418 874 218 870.418 218 866H214ZM210 834C212.209 834 214 835.791 214 838H218C218 833.582 214.418 830 210 830V834ZM54 830C49.5817 830 46 833.582 46 838H50C50 835.791 51.7909 834 54 834V830Z" fill="#5ABC61"/>
<path d="M97.0254 305V294.979H101.284C102.355 294.979 103.132 295.07 103.615 295.252C104.103 295.43 104.493 295.749 104.784 296.209C105.076 296.669 105.222 297.196 105.222 297.788C105.222 298.54 105.001 299.162 104.559 299.654C104.117 300.142 103.456 300.45 102.576 300.577C103.014 300.832 103.374 301.113 103.656 301.418C103.943 301.723 104.328 302.266 104.812 303.045L106.035 305H103.615L102.152 302.819C101.633 302.04 101.277 301.55 101.086 301.35C100.895 301.145 100.692 301.006 100.478 300.933C100.263 300.855 99.9238 300.816 99.459 300.816H99.0488V305H97.0254ZM99.0488 299.217H100.546C101.517 299.217 102.123 299.176 102.364 299.094C102.606 299.012 102.795 298.87 102.932 298.67C103.068 298.469 103.137 298.219 103.137 297.918C103.137 297.581 103.046 297.31 102.863 297.104C102.686 296.895 102.433 296.763 102.104 296.708C101.94 296.685 101.448 296.674 100.628 296.674H99.0488V299.217ZM116.173 305H113.972L113.097 302.724H109.091L108.264 305H106.117L110.021 294.979H112.16L116.173 305ZM112.447 301.035L111.066 297.316L109.713 301.035H112.447ZM117.246 294.979H120.944C121.778 294.979 122.414 295.042 122.852 295.17C123.439 295.343 123.943 295.651 124.362 296.093C124.782 296.535 125.101 297.077 125.319 297.72C125.538 298.358 125.647 299.146 125.647 300.085C125.647 300.91 125.545 301.621 125.34 302.218C125.089 302.947 124.731 303.537 124.267 303.988C123.916 304.33 123.442 304.597 122.845 304.788C122.398 304.929 121.801 305 121.054 305H117.246V294.979ZM119.27 296.674V303.312H120.78C121.345 303.312 121.753 303.28 122.004 303.216C122.332 303.134 122.603 302.995 122.817 302.799C123.036 302.603 123.214 302.282 123.351 301.835C123.487 301.384 123.556 300.771 123.556 299.996C123.556 299.221 123.487 298.627 123.351 298.212C123.214 297.797 123.022 297.474 122.776 297.241C122.53 297.009 122.218 296.852 121.84 296.77C121.557 296.706 121.004 296.674 120.179 296.674H119.27ZM127.309 305V294.979H129.332V305H127.309ZM130.856 300.051C130.856 299.03 131.009 298.173 131.314 297.48C131.542 296.97 131.852 296.512 132.244 296.106C132.641 295.701 133.074 295.4 133.543 295.204C134.167 294.94 134.887 294.808 135.703 294.808C137.18 294.808 138.36 295.266 139.244 296.182C140.133 297.098 140.577 298.371 140.577 300.003C140.577 301.621 140.137 302.888 139.258 303.804C138.378 304.715 137.202 305.171 135.73 305.171C134.24 305.171 133.055 304.717 132.176 303.811C131.296 302.899 130.856 301.646 130.856 300.051ZM132.941 299.982C132.941 301.117 133.203 301.979 133.728 302.566C134.252 303.15 134.917 303.441 135.724 303.441C136.53 303.441 137.191 303.152 137.706 302.573C138.226 301.99 138.485 301.117 138.485 299.955C138.485 298.807 138.232 297.95 137.727 297.385C137.225 296.82 136.558 296.537 135.724 296.537C134.89 296.537 134.217 296.824 133.707 297.398C133.197 297.968 132.941 298.829 132.941 299.982Z" fill="#5ABC61"/>
<path fill-rule="evenodd" clip-rule="evenodd" d="M53.6372 293.637C54.0277 293.246 54.0276 292.613 53.637 292.223C53.2464 291.832 52.6133 291.832 52.2228 292.223C50.1606 294.286 49.0021 297.083 49.0021 300C49.0021 302.917 50.1606 305.714 52.2228 307.777C52.6133 308.168 53.2464 308.168 53.637 307.777C54.0276 307.387 54.0277 306.754 53.6372 306.363C51.95 304.675 51.0021 302.386 51.0021 300C51.0021 297.614 51.95 295.325 53.6372 293.637ZM67.7772 292.223C67.3867 291.832 66.7536 291.832 66.363 292.223C65.9724 292.613 65.9723 293.246 66.3628 293.637C68.05 295.325 68.9979 297.614 68.9979 300C68.9979 302.386 68.05 304.675 66.3628 306.363C65.9723 306.754 65.9724 307.387 66.363 307.777C66.7536 308.168 67.3867 308.168 67.7772 307.777C69.8394 305.714 70.9979 302.917 70.9979 300C70.9979 297.083 69.8394 294.286 67.7772 292.223ZM56.4667 296.457C56.8575 296.067 56.8578 295.434 56.4675 295.043C56.0772 294.653 55.444 294.652 55.0533 295.042C54.4025 295.693 53.8861 296.465 53.5339 297.314C53.1816 298.164 53.0003 299.075 53.0003 299.995C53.0003 300.915 53.1816 301.826 53.5339 302.676C53.8861 303.525 54.4025 304.297 55.0533 304.947C55.444 305.338 56.0772 305.337 56.4675 304.947C56.8578 304.556 56.8575 303.923 56.4667 303.532C56.0018 303.068 55.633 302.517 55.3814 301.91C55.1298 301.303 55.0003 300.652 55.0003 299.995C55.0003 299.338 55.1298 298.687 55.3814 298.08C55.633 297.473 56.0018 296.922 56.4667 296.457ZM64.9467 295.052C64.556 294.662 63.9228 294.663 63.5325 295.053C63.1422 295.444 63.1425 296.077 63.5333 296.467C63.9982 296.932 64.367 297.483 64.6186 298.09C64.8702 298.697 64.9997 299.348 64.9997 300.005C64.9997 300.662 64.8702 301.313 64.6186 301.92C64.367 302.527 63.9982 303.078 63.5333 303.542C63.1425 303.933 63.1422 304.566 63.5325 304.957C63.9228 305.347 64.556 305.348 64.9467 304.957C65.5975 304.307 66.1139 303.535 66.4661 302.686C66.8184 301.836 66.9997 300.925 66.9997 300.005C66.9997 299.085 66.8184 298.174 66.4661 297.324C66.1139 296.475 65.5975 295.703 64.9467 295.052ZM59 300C59 299.448 59.4477 299 60 299C60.5523 299 61 299.448 61 300C61 300.552 60.5523 301 60 301C59.4477 301 59 300.552 59 300ZM60 297C58.3431 297 57 298.343 57 300C57 301.657 58.3431 303 60 303C61.6569 303 63 301.657 63 300C63 298.343 61.6569 297 60 297Z" fill="white"/>
<path d="M97.0254 246.979H101.031C101.824 246.979 102.414 247.013 102.802 247.081C103.194 247.145 103.542 247.282 103.848 247.491C104.158 247.701 104.415 247.981 104.62 248.332C104.825 248.678 104.928 249.068 104.928 249.501C104.928 249.97 104.8 250.401 104.545 250.793C104.294 251.185 103.952 251.479 103.52 251.675C104.13 251.853 104.6 252.156 104.928 252.584C105.256 253.012 105.42 253.516 105.42 254.095C105.42 254.55 105.313 254.995 105.099 255.428C104.889 255.856 104.6 256.2 104.23 256.46C103.866 256.715 103.415 256.872 102.877 256.932C102.54 256.968 101.726 256.991 100.437 257H97.0254V246.979ZM99.0488 248.646V250.964H100.375C101.163 250.964 101.653 250.952 101.845 250.93C102.191 250.889 102.462 250.77 102.658 250.574C102.859 250.374 102.959 250.112 102.959 249.788C102.959 249.478 102.872 249.228 102.699 249.036C102.531 248.84 102.278 248.722 101.94 248.681C101.74 248.658 101.163 248.646 100.211 248.646H99.0488ZM99.0488 252.632V255.312H100.922C101.651 255.312 102.114 255.291 102.31 255.25C102.61 255.195 102.854 255.063 103.041 254.854C103.232 254.639 103.328 254.354 103.328 253.999C103.328 253.698 103.255 253.443 103.109 253.233C102.964 253.024 102.752 252.871 102.474 252.775C102.2 252.68 101.603 252.632 100.683 252.632H99.0488ZM107.143 257V246.979H111.401C112.472 246.979 113.249 247.07 113.732 247.252C114.22 247.43 114.61 247.749 114.901 248.209C115.193 248.669 115.339 249.196 115.339 249.788C115.339 250.54 115.118 251.162 114.676 251.654C114.234 252.142 113.573 252.45 112.693 252.577C113.131 252.832 113.491 253.113 113.773 253.418C114.061 253.723 114.446 254.266 114.929 255.045L116.152 257H113.732L112.27 254.819C111.75 254.04 111.395 253.55 111.203 253.35C111.012 253.145 110.809 253.006 110.595 252.933C110.381 252.855 110.041 252.816 109.576 252.816H109.166V257H107.143ZM109.166 251.217H110.663C111.634 251.217 112.24 251.176 112.481 251.094C112.723 251.012 112.912 250.87 113.049 250.67C113.186 250.469 113.254 250.219 113.254 249.918C113.254 249.581 113.163 249.31 112.98 249.104C112.803 248.895 112.55 248.763 112.222 248.708C112.058 248.685 111.565 248.674 110.745 248.674H109.166V251.217ZM116.843 252.051C116.843 251.03 116.995 250.173 117.301 249.48C117.529 248.97 117.839 248.512 118.23 248.106C118.627 247.701 119.06 247.4 119.529 247.204C120.154 246.94 120.874 246.808 121.689 246.808C123.166 246.808 124.346 247.266 125.23 248.182C126.119 249.098 126.563 250.371 126.563 252.003C126.563 253.621 126.124 254.888 125.244 255.804C124.365 256.715 123.189 257.171 121.717 257.171C120.227 257.171 119.042 256.717 118.162 255.811C117.283 254.899 116.843 253.646 116.843 252.051ZM118.928 251.982C118.928 253.117 119.19 253.979 119.714 254.566C120.238 255.15 120.903 255.441 121.71 255.441C122.517 255.441 123.177 255.152 123.692 254.573C124.212 253.99 124.472 253.117 124.472 251.955C124.472 250.807 124.219 249.95 123.713 249.385C123.212 248.82 122.544 248.537 121.71 248.537C120.876 248.537 120.204 248.824 119.693 249.398C119.183 249.968 118.928 250.829 118.928 251.982ZM129.571 257L127.179 246.979H129.25L130.761 253.862L132.593 246.979H134.999L136.756 253.979L138.294 246.979H140.331L137.897 257H135.751L133.755 249.508L131.766 257H129.571ZM140.857 253.739L142.826 253.548C142.945 254.209 143.184 254.694 143.544 255.004C143.909 255.314 144.398 255.469 145.014 255.469C145.665 255.469 146.155 255.332 146.483 255.059C146.816 254.781 146.982 254.457 146.982 254.088C146.982 253.851 146.912 253.65 146.771 253.486C146.634 253.318 146.392 253.172 146.046 253.049C145.809 252.967 145.269 252.821 144.426 252.611C143.341 252.342 142.58 252.012 142.143 251.62C141.527 251.069 141.22 250.396 141.22 249.604C141.22 249.093 141.363 248.617 141.65 248.175C141.942 247.728 142.359 247.389 142.901 247.156C143.448 246.924 144.107 246.808 144.877 246.808C146.135 246.808 147.08 247.083 147.714 247.635C148.352 248.186 148.687 248.922 148.719 249.843L146.695 249.932C146.609 249.417 146.422 249.048 146.135 248.824C145.852 248.596 145.426 248.482 144.856 248.482C144.269 248.482 143.808 248.603 143.476 248.845C143.261 249 143.154 249.207 143.154 249.467C143.154 249.704 143.255 249.907 143.455 250.075C143.71 250.289 144.33 250.513 145.314 250.745C146.299 250.978 147.026 251.219 147.495 251.47C147.969 251.716 148.338 252.055 148.603 252.488C148.871 252.917 149.006 253.448 149.006 254.081C149.006 254.655 148.846 255.193 148.527 255.694C148.208 256.196 147.757 256.569 147.174 256.815C146.59 257.057 145.864 257.178 144.993 257.178C143.726 257.178 142.753 256.886 142.074 256.303C141.395 255.715 140.99 254.86 140.857 253.739ZM150.708 257V246.979H158.139V248.674H152.731V250.896H157.763V252.584H152.731V255.312H158.33V257H150.708Z" fill="#5ABC61"/>
<path fill-rule="evenodd" clip-rule="evenodd" d="M52 251C52 247.134 55.134 244 59 244C62.866 244 66 247.134 66 251C66 252.886 65.2541 254.598 64.0413 255.856C64.0071 255.883 63.9742 255.912 63.9429 255.943C63.9116 255.974 63.8827 256.007 63.8564 256.041C62.5977 257.254 60.886 258 59 258C55.134 258 52 254.866 52 251ZM64.6177 258.032C63.078 259.264 61.125 260 59 260C54.0294 260 50 255.971 50 251C50 246.029 54.0294 242 59 242C63.9706 242 68 246.029 68 251C68 253.125 67.2635 255.078 66.0319 256.618L69.7071 260.293C70.0976 260.683 70.0976 261.317 69.7071 261.707C69.3166 262.098 68.6834 262.098 68.2929 261.707L64.6177 258.032Z" fill="white"/>
<rect y="184" width="56" height="40" fill="url(#paint0_linear)"/>
<path d="M97.0254 209V198.979H99.0488V202.923H103.014V198.979H105.037V209H103.014V204.618H99.0488V209H97.0254ZM106.726 204.051C106.726 203.03 106.878 202.173 107.184 201.48C107.411 200.97 107.721 200.512 108.113 200.106C108.51 199.701 108.943 199.4 109.412 199.204C110.036 198.94 110.757 198.808 111.572 198.808C113.049 198.808 114.229 199.266 115.113 200.182C116.002 201.098 116.446 202.371 116.446 204.003C116.446 205.621 116.007 206.888 115.127 207.804C114.247 208.715 113.072 209.171 111.6 209.171C110.109 209.171 108.924 208.717 108.045 207.811C107.165 206.899 106.726 205.646 106.726 204.051ZM108.811 203.982C108.811 205.117 109.073 205.979 109.597 206.566C110.121 207.15 110.786 207.441 111.593 207.441C112.399 207.441 113.06 207.152 113.575 206.573C114.095 205.99 114.354 205.117 114.354 203.955C114.354 202.807 114.102 201.95 113.596 201.385C113.094 200.82 112.427 200.537 111.593 200.537C110.759 200.537 110.087 200.824 109.576 201.398C109.066 201.968 108.811 202.829 108.811 203.982ZM118.005 209V198.979H121.033L122.852 205.814L124.649 198.979H127.685V209H125.805V201.111L123.815 209H121.867L119.885 201.111V209H118.005ZM129.694 209V198.979H137.125V200.674H131.718V202.896H136.749V204.584H131.718V207.312H137.316V209H129.694Z" fill="#5ABC61"/>
<path fill-rule="evenodd" clip-rule="evenodd" d="M60.6139 193.211C60.2528 192.93 59.7472 192.93 59.3861 193.211L50.3861 200.211C50.1425 200.4 50 200.691 50 201V212C50 212.796 50.3161 213.559 50.8787 214.121C51.4413 214.684 52.2043 215 53 215H56.5C56.5863 215 56.6701 214.989 56.75 214.968C56.8299 214.989 56.9137 215 57 215C57.5523 215 58 214.552 58 214V205H62V214C62 214.552 62.4477 215 63 215C63.0863 215 63.1701 214.989 63.25 214.968C63.3299 214.989 63.4137 215 63.5 215H67C67.7957 215 68.5587 214.684 69.1213 214.121C69.6839 213.559 70 212.796 70 212V201C70 200.691 69.8575 200.4 69.6139 200.211L60.6139 193.211ZM64 213H67C67.2652 213 67.5196 212.895 67.7071 212.707C67.8946 212.52 68 212.265 68 212V201.489L60 195.267L52 201.489V212C52 212.265 52.1054 212.52 52.2929 212.707C52.4804 212.895 52.7348 213 53 213H56V204C56 203.448 56.4477 203 57 203H63C63.5523 203 64 203.448 64 204V213Z" fill="#5ABC61"/>
<path d="M96.8848 464V455.41H102.773V456.863H98.6191V458.896H102.205V460.35H98.6191V464H96.8848ZM111.287 464H109.4L108.65 462.049H105.217L104.508 464H102.668L106.014 455.41H107.848L111.287 464ZM108.094 460.602L106.91 457.414L105.75 460.602H108.094ZM113.514 464L110.443 455.41H112.324L114.498 461.768L116.602 455.41H118.441L115.365 464H113.514ZM118.975 459.758C118.975 458.883 119.105 458.148 119.367 457.555C119.562 457.117 119.828 456.725 120.164 456.377C120.504 456.029 120.875 455.771 121.277 455.604C121.812 455.377 122.43 455.264 123.129 455.264C124.395 455.264 125.406 455.656 126.164 456.441C126.926 457.227 127.307 458.318 127.307 459.717C127.307 461.104 126.93 462.189 126.176 462.975C125.422 463.756 124.414 464.146 123.152 464.146C121.875 464.146 120.859 463.758 120.105 462.98C119.352 462.199 118.975 461.125 118.975 459.758ZM120.762 459.699C120.762 460.672 120.986 461.41 121.436 461.914C121.885 462.414 122.455 462.664 123.146 462.664C123.838 462.664 124.404 462.416 124.846 461.92C125.291 461.42 125.514 460.672 125.514 459.676C125.514 458.691 125.297 457.957 124.863 457.473C124.434 456.988 123.861 456.746 123.146 456.746C122.432 456.746 121.855 456.992 121.418 457.484C120.98 457.973 120.762 458.711 120.762 459.699ZM128.672 464V455.41H132.322C133.24 455.41 133.906 455.488 134.32 455.645C134.738 455.797 135.072 456.07 135.322 456.465C135.572 456.859 135.697 457.311 135.697 457.818C135.697 458.463 135.508 458.996 135.129 459.418C134.75 459.836 134.184 460.1 133.43 460.209C133.805 460.428 134.113 460.668 134.355 460.93C134.602 461.191 134.932 461.656 135.346 462.324L136.395 464H134.32L133.066 462.131C132.621 461.463 132.316 461.043 132.152 460.871C131.988 460.695 131.814 460.576 131.631 460.514C131.447 460.447 131.156 460.414 130.758 460.414H130.406V464H128.672ZM130.406 459.043H131.689C132.521 459.043 133.041 459.008 133.248 458.938C133.455 458.867 133.617 458.746 133.734 458.574C133.852 458.402 133.91 458.188 133.91 457.93C133.91 457.641 133.832 457.408 133.676 457.232C133.523 457.053 133.307 456.939 133.025 456.893C132.885 456.873 132.463 456.863 131.76 456.863H130.406V459.043ZM137.285 464V455.41H139.02V464H137.285ZM142.611 464V456.863H140.062V455.41H146.889V456.863H144.346V464H142.611ZM148.014 464V455.41H154.383V456.863H149.748V458.768H154.061V460.215H149.748V462.553H154.547V464H148.014ZM158.918 461.205L160.605 461.041C160.707 461.607 160.912 462.023 161.221 462.289C161.533 462.555 161.953 462.688 162.48 462.688C163.039 462.688 163.459 462.57 163.74 462.336C164.025 462.098 164.168 461.82 164.168 461.504C164.168 461.301 164.107 461.129 163.986 460.988C163.869 460.844 163.662 460.719 163.365 460.613C163.162 460.543 162.699 460.418 161.977 460.238C161.047 460.008 160.395 459.725 160.02 459.389C159.492 458.916 159.229 458.34 159.229 457.66C159.229 457.223 159.352 456.814 159.598 456.436C159.848 456.053 160.205 455.762 160.67 455.562C161.139 455.363 161.703 455.264 162.363 455.264C163.441 455.264 164.252 455.5 164.795 455.973C165.342 456.445 165.629 457.076 165.656 457.865L163.922 457.941C163.848 457.5 163.688 457.184 163.441 456.992C163.199 456.797 162.834 456.699 162.346 456.699C161.842 456.699 161.447 456.803 161.162 457.01C160.979 457.143 160.887 457.32 160.887 457.543C160.887 457.746 160.973 457.92 161.145 458.064C161.363 458.248 161.895 458.439 162.738 458.639C163.582 458.838 164.205 459.045 164.607 459.26C165.014 459.471 165.33 459.762 165.557 460.133C165.787 460.5 165.902 460.955 165.902 461.498C165.902 461.99 165.766 462.451 165.492 462.881C165.219 463.311 164.832 463.631 164.332 463.842C163.832 464.049 163.209 464.152 162.463 464.152C161.377 464.152 160.543 463.902 159.961 463.402C159.379 462.898 159.031 462.166 158.918 461.205ZM167.01 459.758C167.01 458.883 167.141 458.148 167.402 457.555C167.598 457.117 167.863 456.725 168.199 456.377C168.539 456.029 168.91 455.771 169.312 455.604C169.848 455.377 170.465 455.264 171.164 455.264C172.43 455.264 173.441 455.656 174.199 456.441C174.961 457.227 175.342 458.318 175.342 459.717C175.342 461.104 174.965 462.189 174.211 462.975C173.457 463.756 172.449 464.146 171.188 464.146C169.91 464.146 168.895 463.758 168.141 462.98C167.387 462.199 167.01 461.125 167.01 459.758ZM168.797 459.699C168.797 460.672 169.021 461.41 169.471 461.914C169.92 462.414 170.49 462.664 171.182 462.664C171.873 462.664 172.439 462.416 172.881 461.92C173.326 461.42 173.549 460.672 173.549 459.676C173.549 458.691 173.332 457.957 172.898 457.473C172.469 456.988 171.896 456.746 171.182 456.746C170.467 456.746 169.891 456.992 169.453 457.484C169.016 457.973 168.797 458.711 168.797 459.699ZM176.719 464V455.41H178.406L181.922 461.146V455.41H183.533V464H181.793L178.33 458.398V464H176.719ZM189.369 460.842V459.395H193.107V462.816C192.744 463.168 192.217 463.479 191.525 463.748C190.838 464.014 190.141 464.146 189.434 464.146C188.535 464.146 187.752 463.959 187.084 463.584C186.416 463.205 185.914 462.666 185.578 461.967C185.242 461.264 185.074 460.5 185.074 459.676C185.074 458.781 185.262 457.986 185.637 457.291C186.012 456.596 186.561 456.062 187.283 455.691C187.834 455.406 188.52 455.264 189.34 455.264C190.406 455.264 191.238 455.488 191.836 455.938C192.438 456.383 192.824 457 192.996 457.789L191.273 458.111C191.152 457.689 190.924 457.357 190.588 457.115C190.256 456.869 189.84 456.746 189.34 456.746C188.582 456.746 187.979 456.986 187.529 457.467C187.084 457.947 186.861 458.66 186.861 459.605C186.861 460.625 187.088 461.391 187.541 461.902C187.994 462.41 188.588 462.664 189.322 462.664C189.686 462.664 190.049 462.594 190.412 462.453C190.779 462.309 191.094 462.135 191.355 461.932V460.842H189.369ZM194.273 461.205L195.961 461.041C196.062 461.607 196.268 462.023 196.576 462.289C196.889 462.555 197.309 462.688 197.836 462.688C198.395 462.688 198.814 462.57 199.096 462.336C199.381 462.098 199.523 461.82 199.523 461.504C199.523 461.301 199.463 461.129 199.342 460.988C199.225 460.844 199.018 460.719 198.721 460.613C198.518 460.543 198.055 460.418 197.332 460.238C196.402 460.008 195.75 459.725 195.375 459.389C194.848 458.916 194.584 458.34 194.584 457.66C194.584 457.223 194.707 456.814 194.953 456.436C195.203 456.053 195.561 455.762 196.025 455.562C196.494 455.363 197.059 455.264 197.719 455.264C198.797 455.264 199.607 455.5 200.15 455.973C200.697 456.445 200.984 457.076 201.012 457.865L199.277 457.941C199.203 457.5 199.043 457.184 198.797 456.992C198.555 456.797 198.189 456.699 197.701 456.699C197.197 456.699 196.803 456.803 196.518 457.01C196.334 457.143 196.242 457.32 196.242 457.543C196.242 457.746 196.328 457.92 196.5 458.064C196.719 458.248 197.25 458.439 198.094 458.639C198.938 458.838 199.561 459.045 199.963 459.26C200.369 459.471 200.686 459.762 200.912 460.133C201.143 460.5 201.258 460.955 201.258 461.498C201.258 461.99 201.121 462.451 200.848 462.881C200.574 463.311 200.188 463.631 199.688 463.842C199.188 464.049 198.564 464.152 197.818 464.152C196.732 464.152 195.898 463.902 195.316 463.402C194.734 462.898 194.387 462.166 194.273 461.205Z" fill="white"/>
<path fill-rule="evenodd" clip-rule="evenodd" d="M52.2465 460.248C51.3417 459.322 50.8333 458.066 50.8333 456.756C50.8333 455.447 51.3417 454.191 52.2465 453.265C53.1514 452.339 54.3786 451.819 55.6583 451.819C56.7734 451.819 57.8487 452.214 58.7056 452.928C58.832 453.033 58.9537 453.146 59.0701 453.265L59.9998 454.216L60.9295 453.265C61.0455 453.146 61.1671 453.034 61.2939 452.928C61.6565 452.626 62.0609 452.378 62.4947 452.194C63.0801 451.946 63.7076 451.818 64.3412 451.818C64.9749 451.818 65.6023 451.946 66.1877 452.194C66.7732 452.442 67.305 452.806 67.753 453.265C68.2012 453.723 68.5567 454.268 68.7993 454.867C69.0418 455.466 69.1667 456.108 69.1667 456.756C69.1667 457.405 69.0418 458.047 68.7993 458.646C68.5567 459.245 68.2012 459.789 67.753 460.248L59.9998 468.182L52.2465 460.248ZM69.0692 461.513L61.3163 469.447C60.971 469.801 60.496 470 59.9998 470C59.5036 470 59.0286 469.801 58.6832 469.447L50.93 461.513C49.688 460.242 49 458.53 49 456.756C49 454.983 49.688 453.271 50.93 452C52.1739 450.727 53.8735 450 55.6583 450C57.2644 450 58.8015 450.588 59.9997 451.634C60.5277 451.173 61.126 450.797 61.774 450.522C62.5861 450.178 63.4586 450 64.3412 450C65.2238 450 66.0964 450.178 66.9085 450.522C67.7202 450.867 68.4539 451.369 69.0692 451.999C69.6849 452.629 70.1703 453.374 70.5005 454.189C70.8307 455.005 71 455.877 71 456.756C71 457.636 70.8307 458.508 70.5005 459.323C70.1703 460.139 69.6849 460.884 69.0692 461.513Z" fill="white"/>
<path d="M96.8789 416V407.41H100.529C101.447 407.41 102.113 407.488 102.527 407.645C102.945 407.797 103.279 408.07 103.529 408.465C103.779 408.859 103.904 409.311 103.904 409.818C103.904 410.463 103.715 410.996 103.336 411.418C102.957 411.836 102.391 412.1 101.637 412.209C102.012 412.428 102.32 412.668 102.562 412.93C102.809 413.191 103.139 413.656 103.553 414.324L104.602 416H102.527L101.273 414.131C100.828 413.463 100.523 413.043 100.359 412.871C100.195 412.695 100.021 412.576 99.8379 412.514C99.6543 412.447 99.3633 412.414 98.9648 412.414H98.6133V416H96.8789ZM98.6133 411.043H99.8965C100.729 411.043 101.248 411.008 101.455 410.938C101.662 410.867 101.824 410.746 101.941 410.574C102.059 410.402 102.117 410.188 102.117 409.93C102.117 409.641 102.039 409.408 101.883 409.232C101.73 409.053 101.514 408.939 101.232 408.893C101.092 408.873 100.67 408.863 99.9668 408.863H98.6133V411.043ZM105.545 416V407.41H111.914V408.863H107.279V410.768H111.592V412.215H107.279V414.553H112.078V416H105.545ZM119.045 412.842L120.727 413.375C120.469 414.312 120.039 415.01 119.438 415.467C118.84 415.92 118.08 416.146 117.158 416.146C116.018 416.146 115.08 415.758 114.346 414.98C113.611 414.199 113.244 413.133 113.244 411.781C113.244 410.352 113.613 409.242 114.352 408.453C115.09 407.66 116.061 407.264 117.264 407.264C118.314 407.264 119.168 407.574 119.824 408.195C120.215 408.562 120.508 409.09 120.703 409.777L118.986 410.188C118.885 409.742 118.672 409.391 118.348 409.133C118.027 408.875 117.637 408.746 117.176 408.746C116.539 408.746 116.021 408.975 115.623 409.432C115.229 409.889 115.031 410.629 115.031 411.652C115.031 412.738 115.227 413.512 115.617 413.973C116.008 414.434 116.516 414.664 117.141 414.664C117.602 414.664 117.998 414.518 118.33 414.225C118.662 413.932 118.9 413.471 119.045 412.842ZM122.221 416V407.41H128.59V408.863H123.955V410.768H128.268V412.215H123.955V414.553H128.754V416H122.221ZM130.242 416V407.41H131.93L135.445 413.146V407.41H137.057V416H135.316L131.854 410.398V416H130.242ZM140.83 416V408.863H138.281V407.41H145.107V408.863H142.564V416H140.83ZM146.279 416V407.48H148.014V414.553H152.326V416H146.279ZM154.723 416V412.385L151.576 407.41H153.609L155.631 410.809L157.611 407.41H159.609L156.451 412.396V416H154.723ZM163.588 416V407.41H166.371C167.426 407.41 168.113 407.453 168.434 407.539C168.926 407.668 169.338 407.949 169.67 408.383C170.002 408.812 170.168 409.369 170.168 410.053C170.168 410.58 170.072 411.023 169.881 411.383C169.689 411.742 169.445 412.025 169.148 412.232C168.855 412.436 168.557 412.57 168.252 412.637C167.838 412.719 167.238 412.76 166.453 412.76H165.322V416H163.588ZM165.322 408.863V411.301H166.271C166.955 411.301 167.412 411.256 167.643 411.166C167.873 411.076 168.053 410.936 168.182 410.744C168.314 410.553 168.381 410.33 168.381 410.076C168.381 409.764 168.289 409.506 168.105 409.303C167.922 409.1 167.689 408.973 167.408 408.922C167.201 408.883 166.785 408.863 166.16 408.863H165.322ZM171.639 416V407.48H173.373V414.553H177.686V416H171.639ZM186.674 416H184.787L184.037 414.049H180.604L179.895 416H178.055L181.4 407.41H183.234L186.674 416ZM183.48 412.602L182.297 409.414L181.137 412.602H183.48ZM188.754 416V412.385L185.607 407.41H187.641L189.662 410.809L191.643 407.41H193.641L190.482 412.396V416H188.754ZM194.502 416V407.41H200.871V408.863H196.236V410.768H200.549V412.215H196.236V414.553H201.035V416H194.502ZM202.5 407.41H205.67C206.385 407.41 206.93 407.465 207.305 407.574C207.809 407.723 208.24 407.986 208.6 408.365C208.959 408.744 209.232 409.209 209.42 409.76C209.607 410.307 209.701 410.982 209.701 411.787C209.701 412.494 209.613 413.104 209.438 413.615C209.223 414.24 208.916 414.746 208.518 415.133C208.217 415.426 207.811 415.654 207.299 415.818C206.916 415.939 206.404 416 205.764 416H202.5V407.41ZM204.234 408.863V414.553H205.529C206.014 414.553 206.363 414.525 206.578 414.471C206.859 414.4 207.092 414.281 207.275 414.113C207.463 413.945 207.615 413.67 207.732 413.287C207.85 412.9 207.908 412.375 207.908 411.711C207.908 411.047 207.85 410.537 207.732 410.182C207.615 409.826 207.451 409.549 207.24 409.35C207.029 409.15 206.762 409.016 206.438 408.945C206.195 408.891 205.721 408.863 205.014 408.863H204.234Z" fill="white"/>
<path fill-rule="evenodd" clip-rule="evenodd" d="M51 412C51 407.029 55.0294 403 60 403C64.9706 403 69 407.029 69 412C69 416.971 64.9706 421 60 421C55.0294 421 51 416.971 51 412ZM60 401C53.9249 401 49 405.925 49 412C49 418.075 53.9249 423 60 423C66.0751 423 71 418.075 71 412C71 405.925 66.0751 401 60 401ZM61 406C61 405.448 60.5523 405 60 405C59.4477 405 59 405.448 59 406V412C59 412.379 59.214 412.725 59.5528 412.894L63.5528 414.894C64.0468 415.141 64.6474 414.941 64.8944 414.447C65.1414 413.953 64.9412 413.353 64.4472 413.106L61 411.382V406Z" fill="white"/>
<path d="M104.619 512H102.732L101.982 510.049H98.5488L97.8398 512H96L99.3457 503.41H101.18L104.619 512ZM101.426 508.602L100.242 505.414L99.082 508.602H101.426ZM105.551 512V503.41H109.201C110.119 503.41 110.785 503.488 111.199 503.645C111.617 503.797 111.951 504.07 112.201 504.465C112.451 504.859 112.576 505.311 112.576 505.818C112.576 506.463 112.387 506.996 112.008 507.418C111.629 507.836 111.062 508.1 110.309 508.209C110.684 508.428 110.992 508.668 111.234 508.93C111.48 509.191 111.811 509.656 112.225 510.324L113.273 512H111.199L109.945 510.131C109.5 509.463 109.195 509.043 109.031 508.871C108.867 508.695 108.693 508.576 108.51 508.514C108.326 508.447 108.035 508.414 107.637 508.414H107.285V512H105.551ZM107.285 507.043H108.568C109.4 507.043 109.92 507.008 110.127 506.938C110.334 506.867 110.496 506.746 110.613 506.574C110.73 506.402 110.789 506.188 110.789 505.93C110.789 505.641 110.711 505.408 110.555 505.232C110.402 505.053 110.186 504.939 109.904 504.893C109.764 504.873 109.342 504.863 108.639 504.863H107.285V507.043ZM116.15 512V504.863H113.602V503.41H120.428V504.863H117.885V512H116.15ZM121.5 512V503.41H123.234V512H121.5ZM124.453 509.205L126.141 509.041C126.242 509.607 126.447 510.023 126.756 510.289C127.068 510.555 127.488 510.688 128.016 510.688C128.574 510.688 128.994 510.57 129.275 510.336C129.561 510.098 129.703 509.82 129.703 509.504C129.703 509.301 129.643 509.129 129.521 508.988C129.404 508.844 129.197 508.719 128.9 508.613C128.697 508.543 128.234 508.418 127.512 508.238C126.582 508.008 125.93 507.725 125.555 507.389C125.027 506.916 124.764 506.34 124.764 505.66C124.764 505.223 124.887 504.814 125.133 504.436C125.383 504.053 125.74 503.762 126.205 503.562C126.674 503.363 127.238 503.264 127.898 503.264C128.977 503.264 129.787 503.5 130.33 503.973C130.877 504.445 131.164 505.076 131.191 505.865L129.457 505.941C129.383 505.5 129.223 505.184 128.977 504.992C128.734 504.797 128.369 504.699 127.881 504.699C127.377 504.699 126.982 504.803 126.697 505.01C126.514 505.143 126.422 505.32 126.422 505.543C126.422 505.746 126.508 505.92 126.68 506.064C126.898 506.248 127.43 506.439 128.273 506.639C129.117 506.838 129.74 507.045 130.143 507.26C130.549 507.471 130.865 507.762 131.092 508.133C131.322 508.5 131.438 508.955 131.438 509.498C131.438 509.99 131.301 510.451 131.027 510.881C130.754 511.311 130.367 511.631 129.867 511.842C129.367 512.049 128.744 512.152 127.998 512.152C126.912 512.152 126.078 511.902 125.496 511.402C124.914 510.898 124.566 510.166 124.453 509.205ZM134.83 512V504.863H132.281V503.41H139.107V504.863H136.564V512H134.83ZM139.793 509.205L141.48 509.041C141.582 509.607 141.787 510.023 142.096 510.289C142.408 510.555 142.828 510.688 143.355 510.688C143.914 510.688 144.334 510.57 144.615 510.336C144.9 510.098 145.043 509.82 145.043 509.504C145.043 509.301 144.982 509.129 144.861 508.988C144.744 508.844 144.537 508.719 144.24 508.613C144.037 508.543 143.574 508.418 142.852 508.238C141.922 508.008 141.27 507.725 140.895 507.389C140.367 506.916 140.104 506.34 140.104 505.66C140.104 505.223 140.227 504.814 140.473 504.436C140.723 504.053 141.08 503.762 141.545 503.562C142.014 503.363 142.578 503.264 143.238 503.264C144.316 503.264 145.127 503.5 145.67 503.973C146.217 504.445 146.504 505.076 146.531 505.865L144.797 505.941C144.723 505.5 144.562 505.184 144.316 504.992C144.074 504.797 143.709 504.699 143.221 504.699C142.717 504.699 142.322 504.803 142.037 505.01C141.854 505.143 141.762 505.32 141.762 505.543C141.762 505.746 141.848 505.92 142.02 506.064C142.238 506.248 142.77 506.439 143.613 506.639C144.457 506.838 145.08 507.045 145.482 507.26C145.889 507.471 146.205 507.762 146.432 508.133C146.662 508.5 146.777 508.955 146.777 509.498C146.777 509.99 146.641 510.451 146.367 510.881C146.094 511.311 145.707 511.631 145.207 511.842C144.707 512.049 144.084 512.152 143.338 512.152C142.252 512.152 141.418 511.902 140.836 511.402C140.254 510.898 139.906 510.166 139.793 509.205Z" fill="white"/>
<path fill-rule="evenodd" clip-rule="evenodd" d="M57 503C57 501.343 58.3431 500 60 500C61.6569 500 63 501.343 63 503C63 504.657 61.6569 506 60 506C58.3431 506 57 504.657 57 503ZM60 498C57.2386 498 55 500.239 55 503C55 505.761 57.2386 508 60 508C62.7614 508 65 505.761 65 503C65 500.239 62.7614 498 60 498ZM56 510C54.6739 510 53.4021 510.527 52.4645 511.464C51.5268 512.402 51 513.674 51 515V517C51 517.552 51.4477 518 52 518C52.5523 518 53 517.552 53 517V515C53 514.204 53.3161 513.441 53.8787 512.879C54.4413 512.316 55.2044 512 56 512H64C64.7956 512 65.5587 512.316 66.1213 512.879C66.6839 513.441 67 514.204 67 515V517C67 517.552 67.4477 518 68 518C68.5523 518 69 517.552 69 517V515C69 513.674 68.4732 512.402 67.5355 511.464C66.5979 510.527 65.3261 510 64 510H56Z" fill="white"/>
<path d="M104.619 560H102.732L101.982 558.049H98.5488L97.8398 560H96L99.3457 551.41H101.18L104.619 560ZM101.426 556.602L100.242 553.414L99.082 556.602H101.426ZM105.592 560V551.48H107.326V558.553H111.639V560H105.592ZM112.887 551.41H116.32C117 551.41 117.506 551.439 117.838 551.498C118.174 551.553 118.473 551.67 118.734 551.85C119 552.029 119.221 552.27 119.396 552.57C119.572 552.867 119.66 553.201 119.66 553.572C119.66 553.975 119.551 554.344 119.332 554.68C119.117 555.016 118.824 555.268 118.453 555.436C118.977 555.588 119.379 555.848 119.66 556.215C119.941 556.582 120.082 557.014 120.082 557.51C120.082 557.9 119.99 558.281 119.807 558.652C119.627 559.02 119.379 559.314 119.062 559.537C118.75 559.756 118.363 559.891 117.902 559.941C117.613 559.973 116.916 559.992 115.811 560H112.887V551.41ZM114.621 552.84V554.826H115.758C116.434 554.826 116.854 554.816 117.018 554.797C117.314 554.762 117.547 554.66 117.715 554.492C117.887 554.32 117.973 554.096 117.973 553.818C117.973 553.553 117.898 553.338 117.75 553.174C117.605 553.006 117.389 552.904 117.1 552.869C116.928 552.85 116.434 552.84 115.617 552.84H114.621ZM114.621 556.256V558.553H116.227C116.852 558.553 117.248 558.535 117.416 558.5C117.674 558.453 117.883 558.34 118.043 558.16C118.207 557.977 118.289 557.732 118.289 557.428C118.289 557.17 118.227 556.951 118.102 556.771C117.977 556.592 117.795 556.461 117.557 556.379C117.322 556.297 116.811 556.256 116.021 556.256H114.621ZM121.541 551.41H123.275V556.062C123.275 556.801 123.297 557.279 123.34 557.498C123.414 557.85 123.59 558.133 123.867 558.348C124.148 558.559 124.531 558.664 125.016 558.664C125.508 558.664 125.879 558.564 126.129 558.365C126.379 558.162 126.529 557.914 126.58 557.621C126.631 557.328 126.656 556.842 126.656 556.162V551.41H128.391V555.922C128.391 556.953 128.344 557.682 128.25 558.107C128.156 558.533 127.982 558.893 127.729 559.186C127.479 559.479 127.143 559.713 126.721 559.889C126.299 560.061 125.748 560.146 125.068 560.146C124.248 560.146 123.625 560.053 123.199 559.865C122.777 559.674 122.443 559.428 122.197 559.127C121.951 558.822 121.789 558.504 121.711 558.172C121.598 557.68 121.541 556.953 121.541 555.992V551.41ZM130.201 560V551.41H132.797L134.355 557.27L135.896 551.41H138.498V560H136.887V553.238L135.182 560H133.512L131.812 553.238V560H130.201ZM139.781 557.205L141.469 557.041C141.57 557.607 141.775 558.023 142.084 558.289C142.396 558.555 142.816 558.688 143.344 558.688C143.902 558.688 144.322 558.57 144.604 558.336C144.889 558.098 145.031 557.82 145.031 557.504C145.031 557.301 144.971 557.129 144.85 556.988C144.732 556.844 144.525 556.719 144.229 556.613C144.025 556.543 143.562 556.418 142.84 556.238C141.91 556.008 141.258 555.725 140.883 555.389C140.355 554.916 140.092 554.34 140.092 553.66C140.092 553.223 140.215 552.814 140.461 552.436C140.711 552.053 141.068 551.762 141.533 551.562C142.002 551.363 142.566 551.264 143.227 551.264C144.305 551.264 145.115 551.5 145.658 551.973C146.205 552.445 146.492 553.076 146.52 553.865L144.785 553.941C144.711 553.5 144.551 553.184 144.305 552.992C144.062 552.797 143.697 552.699 143.209 552.699C142.705 552.699 142.311 552.803 142.025 553.01C141.842 553.143 141.75 553.32 141.75 553.543C141.75 553.746 141.836 553.92 142.008 554.064C142.227 554.248 142.758 554.439 143.602 554.639C144.445 554.838 145.068 555.045 145.471 555.26C145.877 555.471 146.193 555.762 146.42 556.133C146.65 556.5 146.766 556.955 146.766 557.498C146.766 557.99 146.629 558.451 146.355 558.881C146.082 559.311 145.695 559.631 145.195 559.842C144.695 560.049 144.072 560.152 143.326 560.152C142.24 560.152 141.406 559.902 140.824 559.402C140.242 558.898 139.895 558.166 139.781 557.205Z" fill="white"/>
<path fill-rule="evenodd" clip-rule="evenodd" d="M59.5528 545.106C59.8343 544.965 60.1657 544.965 60.4472 545.106L70.4472 550.106C70.786 550.275 71 550.621 71 551C71 551.379 70.786 551.725 70.4472 551.894L60.4472 556.894C60.1657 557.035 59.8343 557.035 59.5528 556.894L49.5528 551.894C49.214 551.725 49 551.379 49 551C49 550.621 49.214 550.275 49.5528 550.106L59.5528 545.106ZM52.2361 551L60 554.882L67.7639 551L60 547.118L52.2361 551ZM49.1055 560.553C49.3525 560.059 49.9532 559.859 50.4472 560.106L60 564.882L69.5528 560.106C70.0467 559.859 70.6474 560.059 70.8944 560.553C71.1414 561.047 70.9412 561.647 70.4472 561.894L60.4472 566.894C60.1657 567.035 59.8343 567.035 59.5528 566.894L49.5528 561.894C49.0588 561.647 48.8586 561.047 49.1055 560.553ZM50.4472 555.106C49.9532 554.859 49.3525 555.059 49.1055 555.553C48.8586 556.047 49.0588 556.647 49.5528 556.894L59.5528 561.894C59.8343 562.035 60.1657 562.035 60.4472 561.894L70.4472 556.894C70.9412 556.647 71.1414 556.047 70.8944 555.553C70.6474 555.059 70.0467 554.859 69.5528 555.106L60 559.882L50.4472 555.106Z" fill="white"/>
<defs>
<linearGradient id="paint0_linear" x1="-4.17233e-07" y1="204" x2="47.3846" y2="204" gradientUnits="userSpaceOnUse">
<stop stop-color="#5ABC61" stop-opacity="0.54"/>
<stop offset="1" stop-color="#5ABC61" stop-opacity="0"/>
</linearGradient>
</defs>
</svg>
